# xmcd
#
# Track frame offsets: 
#        182
#        9505
#        20355
#        31195
#        45020
#        56342
#        68530
#        83680
#        94782
#        103470
#        114105
#        127245
#        136200
#        147687
#        156530
#        170350
#        183102
#        195375
#        207737
#        220305
#        235370
#        246862
#
# Disc length: 3456 seconds
#
# Revision: 3
# Processed by: cddbd v1.5.2PL0 Copyright (c) Steve Scherf et al.
# Submitted via: ExactAudioCopy v0.99pb4
#
DISCID=300d7e16
DTITLE=Solomon Burke - Home in Your Heart
DYEAR=1992
DGENRE=Soul
TTITLE0=Home in Your Heart
TTITLE1=Down in the Valley
TTITLE2=Looking for My Baby
TTITLE3=I'm Hanging Up My Heart for You
TTITLE4=Cry to Me
TTITLE5=Just out of Reach
TTITLE6=Goodbye Baby
TTITLE7=Words
TTITLE8=Stupidity
TTITLE9=Can't Nobody Love You
TTITLE10=Go on Back to Him
TTITLE11=Baby, I Wanna Be Loved
TTITLE12=Can't Nobody Love You
TTITLE13=Got to Get You off My Mind
TTITLE14=Someone to Love Me
TTITLE15=You're Good for Me
TTITLE16=Dance, Dance, Dance
TTITLE17=Everybody Needs Somebody to Love
TTITLE18=Tonight's the Night
TTITLE19=Baby, Come on Home
TTITLE20=If You Need Me
TTITLE21=The Price
EXTD=
EXTT0=
EXTT1=
EXTT2=
EXTT3=
EXTT4=
EXTT5=
EXTT6=
EXTT7=
EXTT8=
EXTT9=
EXTT10=
EXTT11=
EXTT12=
EXTT13=
EXTT14=
EXTT15=
EXTT16=
EXTT17=
EXTT18=
EXTT19=
EXTT20=
EXTT21=
PLAYORDER=
